<svg width="81" height="80" viewBox="0 0 81 80" fill="none" xmlns="http://www.w3.org/2000/svg">
<path d="M12.3457 71.5011C22.7839 76.6668 21.8457 75.3709 22.8457 75.3709L40.1349 57.0327L42.3734 44.9184L9.84551 56.9252C8.06103 62.2565 7.24619 64.7318 12.3457 71.5011Z" fill="#FF1D1D" fill-opacity="0.3"/>
<path d="M78 41.3706H52.7969L78 49.3706V41.3706Z" fill="#10DC62" fill-opacity="0.3"/>
<path d="M46 25.3706L9 11.48V6.37061H49.4231L46 25.3706Z" fill="#F2B705" fill-opacity="0.3"/>
<path d="M7.84571 11.0406L8.84594 41.4009L43.0001 41.3708L46.0001 25.3706L7.84571 11.0406Z" fill="#395B74" fill-opacity="0.3"/>
<path d="M52.8109 41.3706L49.4187 6.37061H64.0166L73.5 10.8706L78.9999 21.3706L78.5166 41.3706H52.8109Z" fill="#BA73AE" fill-opacity="0.3"/>
<path d="M40.2001 56.8706L22.3826 75.8706H36.6916L40.2001 56.8706Z" fill="#589A48" fill-opacity="0.3"/>
<path d="M9 41.3706V57.3706L42.5 44.8706L42.75 43.1206L43 41.3706H9Z" fill="#468731" fill-opacity="0.3"/>
<path d="M56.4065 78.3709L49.4313 6.33374L36.2151 78.3709H56.4065Z" fill="#713D3D" fill-opacity="0.3"/>
<path d="M78 49.3706L52.8 41.3706L78 75.5781V49.3706Z" fill="#395B74" fill-opacity="0.3"/>
<path d="M56.15 76L52.8 41.3706L78.3157 76H56.15Z" fill="#F2B705" fill-opacity="0.3"/>
<path d="M71 59.5C71 64.7467 66.7467 69 61.5 69C56.2533 69 52 64.7467 52 59.5C52 54.2533 56.2533 50 61.5 50C66.7467 50 71 54.2533 71 59.5Z" fill="#654321"/>
<path d="M71 59.5C71 64.7467 66.7467 69 61.5 69C56.2533 69 52 64.7467 52 59.5C52 54.2533 56.2533 50 61.5 50C66.7467 50 71 54.2533 71 59.5Z" fill="#654321"/>
<path d="M36 24C36 29.5228 31.5228 34 26 34C20.4772 34 16 29.5228 16 24C16 18.4772 20.4772 14 26 14C31.5228 14 36 18.4772 36 24Z" fill="#654321"/>
<path d="M36 59.5C36 64.7467 31.5228 69 26 69C20.4772 69 16 64.7467 16 59.5C16 54.2533 20.4772 50 26 50C31.5228 50 36 54.2533 36 59.5Z" fill="#654321"/>
<path d="M71 24C71 29.5228 66.7467 34 61.5 34C56.2533 34 52 29.5228 52 24C52 18.4772 56.2533 14 61.5 14C66.7467 14 71 18.4772 71 24Z" fill="#654321"/>
<path d="M8 6L80 78" stroke="#654321" stroke-width="1.5"/>
<path d="M26 59L62 24" stroke="#654321" stroke-width="1.5"/>
<path d="M17 24H7" stroke="#654321" stroke-width="1.5"/>
<path d="M26 15L26 5" stroke="#654321" stroke-width="1.5"/>
<path d="M61 68V79" stroke="#654321" stroke-width="1.5"/>
<path d="M81 60H70" stroke="#654321" stroke-width="1.5"/>
<path d="M8.49976 6.50024H61.9998C71.6647 6.50024 79.4998 14.3353 79.4998 24.0002V77.5002H25.9998C16.3348 77.5002 8.49976 69.6652 8.49976 60.0002V6.50024Z" stroke="#654321" stroke-width="3"/>
</svg>
