<svg width="827" height="450" viewBox="0 0 827 450" fill="none" xmlns="http://www.w3.org/2000/svg">
<g opacity="0.4">
<g filter="url(#filter0_f_354_18)">
<path d="M481.684 -1.55324C459.735 26.6559 451.735 212.785 370.365 167.496C370.365 167.496 317.47 99.8552 299.519 103.917C281.568 107.978 198.016 249.838 149.671 200.568C101.325 151.298 28.5271 19.5702 41.4582 -27.658C54.3894 -74.8861 282.791 -23.7175 282.791 -23.7175C282.791 -23.7175 338.092 -9.3889 376.864 -70.4074C415.635 -131.426 503.632 -29.7624 481.684 -1.55324Z" fill="url(#paint0_linear_354_18)"/>
<path d="M481.684 -1.55324C459.735 26.6559 451.735 212.785 370.365 167.496C370.365 167.496 317.47 99.8552 299.519 103.917C281.568 107.978 198.016 249.838 149.671 200.568C101.325 151.298 28.5271 19.5702 41.4582 -27.658C54.3894 -74.8861 282.791 -23.7175 282.791 -23.7175C282.791 -23.7175 338.092 -9.3889 376.864 -70.4074C415.635 -131.426 503.632 -29.7624 481.684 -1.55324Z" stroke="#2C2891"/>
</g>
<g filter="url(#filter1_f_354_18)">
<path d="M1000.73 502.743C940.851 508.959 705.186 719.153 665.442 564.99C665.442 564.99 686.06 419.605 660.204 402.212C634.347 384.818 364.478 449.248 368.058 331.212C371.638 213.176 446.998 -32.5968 519.498 -72.4517C591.999 -112.307 795.923 230.61 795.923 230.61C795.923 230.61 842.938 315.93 962.32 291.72C1081.7 267.511 1060.61 496.527 1000.73 502.743Z" fill="url(#paint1_linear_354_18)"/>
<path d="M1000.73 502.743C940.851 508.959 705.186 719.153 665.442 564.99C665.442 564.99 686.06 419.605 660.204 402.212C634.347 384.818 364.478 449.248 368.058 331.212C371.638 213.176 446.998 -32.5968 519.498 -72.4517C591.999 -112.307 795.923 230.61 795.923 230.61C795.923 230.61 842.938 315.93 962.32 291.72C1081.7 267.511 1060.61 496.527 1000.73 502.743Z" stroke="#2C2891"/>
</g>
<g filter="url(#filter2_f_354_18)">
<path d="M562.27 -96.9561C607.831 -100.154 791.671 -251.222 818.048 -135.323C818.048 -135.323 798.865 -27.4174 818.048 -13.8285C837.231 -0.239465 1043.45 -41.8036 1037.86 46.1194C1032.26 134.042 969.117 315.485 913.166 343.462C857.214 371.438 710.941 110.863 710.941 110.863C710.941 110.863 677.37 46.1194 586.249 61.3061C495.128 76.4928 516.71 -93.758 562.27 -96.9561Z" fill="url(#paint2_linear_354_18)"/>
<path d="M562.27 -96.9561C607.831 -100.154 791.671 -251.222 818.048 -135.323C818.048 -135.323 798.865 -27.4174 818.048 -13.8285C837.231 -0.239465 1043.45 -41.8036 1037.86 46.1194C1032.26 134.042 969.117 315.485 913.166 343.462C857.214 371.438 710.941 110.863 710.941 110.863C710.941 110.863 677.37 46.1194 586.249 61.3061C495.128 76.4928 516.71 -93.758 562.27 -96.9561Z" stroke="#2C2891"/>
</g>
<g filter="url(#filter3_f_354_18)">
<path d="M367.727 436.703C404.133 409.123 475.517 182.136 560.951 264.776C560.951 264.776 603.864 365.623 627.355 366.518C650.847 367.413 800.824 219.894 844.193 296.581C887.563 373.268 933.853 559.724 902.289 613.733C870.724 667.742 605.813 529.478 605.813 529.478C605.813 529.478 542.314 493.608 474.307 556.129C406.301 618.649 331.322 464.282 367.727 436.703Z" fill="url(#paint3_linear_354_18)"/>
<path d="M367.727 436.703C404.133 409.123 475.517 182.136 560.951 264.776C560.951 264.776 603.864 365.623 627.355 366.518C650.847 367.413 800.824 219.894 844.193 296.581C887.563 373.268 933.853 559.724 902.289 613.733C870.724 667.742 605.813 529.478 605.813 529.478C605.813 529.478 542.314 493.608 474.307 556.129C406.301 618.649 331.322 464.282 367.727 436.703Z" stroke="#2C2891"/>
</g>
<g filter="url(#filter4_f_354_18)">
<path d="M214.806 578.355C217.368 538.837 131.469 594.545 90.8535 584.909C50.2382 575.272 -37.5429 476.98 -40.0003 430.5C-42.6217 380.919 -115.854 388.5 -12.5002 293.5C90.8535 198.5 287.803 389.215 321.285 352.869C354.767 316.522 158.129 201.374 229.177 215.707C300.224 230.04 368.194 156.829 398.382 141.279C428.57 125.728 532.33 376.593 484.458 352.869C436.585 329.145 373.98 469.622 373.98 469.622C373.98 469.622 388.429 660.811 321.285 634.281C254.141 607.751 212.244 617.874 214.806 578.355Z" fill="url(#paint4_linear_354_18)"/>
<path d="M214.806 578.355C217.368 538.837 131.469 594.545 90.8535 584.909C50.2382 575.272 -37.5429 476.98 -40.0003 430.5C-42.6217 380.919 -115.854 388.5 -12.5002 293.5C90.8535 198.5 287.803 389.215 321.285 352.869C354.767 316.522 158.129 201.374 229.177 215.707C300.224 230.04 368.194 156.829 398.382 141.279C428.57 125.728 532.33 376.593 484.458 352.869C436.585 329.145 373.98 469.622 373.98 469.622C373.98 469.622 388.429 660.811 321.285 634.281C254.141 607.751 212.244 617.874 214.806 578.355Z" stroke="#2C2891"/>
</g>
<g filter="url(#filter5_f_354_18)">
<path d="M-134.273 189.703C-97.8673 162.123 -26.483 -64.8642 58.9515 17.7757C58.9515 17.7757 101.864 118.623 125.355 119.518C148.847 120.413 298.824 -27.1058 342.193 49.5809C385.563 126.268 431.853 312.724 400.289 366.733C368.724 420.742 103.813 282.478 103.813 282.478C103.813 282.478 40.3137 246.608 -27.6925 309.129C-95.6987 371.649 -170.678 217.282 -134.273 189.703Z" fill="url(#paint5_linear_354_18)"/>
<path d="M-134.273 189.703C-97.8673 162.123 -26.483 -64.8642 58.9515 17.7757C58.9515 17.7757 101.864 118.623 125.355 119.518C148.847 120.413 298.824 -27.1058 342.193 49.5809C385.563 126.268 431.853 312.724 400.289 366.733C368.724 420.742 103.813 282.478 103.813 282.478C103.813 282.478 40.3137 246.608 -27.6925 309.129C-95.6987 371.649 -170.678 217.282 -134.273 189.703Z" stroke="#2C2891"/>
</g>
</g>
<defs>
<filter id="filter0_f_354_18" x="-100.556" y="-230.078" width="726.204" height="581.528" filterUnits="userSpaceOnUse" color-interpolation-filters="sRGB">
<feFlood flood-opacity="0" result="BackgroundImageFix"/>
<feBlend mode="normal" in="SourceGraphic" in2="BackgroundImageFix" result="shape"/>
<feGaussianBlur stdDeviation="70" result="effect1_foregroundBlur_354_18"/>
</filter>
<filter id="filter1_f_354_18" x="227.523" y="-216.175" width="961.885" height="978.043" filterUnits="userSpaceOnUse" color-interpolation-filters="sRGB">
<feFlood flood-opacity="0" result="BackgroundImageFix"/>
<feBlend mode="normal" in="SourceGraphic" in2="BackgroundImageFix" result="shape"/>
<feGaussianBlur stdDeviation="70" result="effect1_foregroundBlur_354_18"/>
</filter>
<filter id="filter2_f_354_18" x="382.5" y="-319.5" width="795.969" height="805.564" filterUnits="userSpaceOnUse" color-interpolation-filters="sRGB">
<feFlood flood-opacity="0" result="BackgroundImageFix"/>
<feBlend mode="normal" in="SourceGraphic" in2="BackgroundImageFix" result="shape"/>
<feGaussianBlur stdDeviation="70" result="effect1_foregroundBlur_354_18"/>
</filter>
<filter id="filter3_f_354_18" x="217.705" y="106.265" width="835.491" height="660.485" filterUnits="userSpaceOnUse" color-interpolation-filters="sRGB">
<feFlood flood-opacity="0" result="BackgroundImageFix"/>
<feBlend mode="normal" in="SourceGraphic" in2="BackgroundImageFix" result="shape"/>
<feGaussianBlur stdDeviation="70" result="effect1_foregroundBlur_354_18"/>
</filter>
<filter id="filter4_f_354_18" x="-208.11" y="0.0838623" width="845.496" height="777.224" filterUnits="userSpaceOnUse" color-interpolation-filters="sRGB">
<feFlood flood-opacity="0" result="BackgroundImageFix"/>
<feBlend mode="normal" in="SourceGraphic" in2="BackgroundImageFix" result="shape"/>
<feGaussianBlur stdDeviation="70" result="effect1_foregroundBlur_354_18"/>
</filter>
<filter id="filter5_f_354_18" x="-284.295" y="-140.735" width="835.491" height="660.485" filterUnits="userSpaceOnUse" color-interpolation-filters="sRGB">
<feFlood flood-opacity="0" result="BackgroundImageFix"/>
<feBlend mode="normal" in="SourceGraphic" in2="BackgroundImageFix" result="shape"/>
<feGaussianBlur stdDeviation="70" result="effect1_foregroundBlur_354_18"/>
</filter>
<linearGradient id="paint0_linear_354_18" x1="127.942" y1="181.186" x2="397.108" y2="-118.745" gradientUnits="userSpaceOnUse">
<stop stop-color="#F26522"/>
<stop offset="1" stop-color="#F26522"/>
</linearGradient>
<linearGradient id="paint1_linear_354_18" x1="366.308" y1="281.427" x2="1044.69" y2="259.596" gradientUnits="userSpaceOnUse">
<stop stop-color="#F1F1BA"/>
<stop offset="1" stop-color="#F1F1BA"/>
</linearGradient>
<linearGradient id="paint2_linear_354_18" x1="1037.97" y1="83.2817" x2="523" y2="83.2817" gradientUnits="userSpaceOnUse">
<stop stop-color="#468731"/>
<stop offset="1" stop-color="#468731"/>
</linearGradient>
<linearGradient id="paint3_linear_354_18" x1="864.598" y1="327.64" x2="433.352" y2="609.101" gradientUnits="userSpaceOnUse">
<stop stop-color="#F26522"/>
<stop offset="1" stop-color="#F26522"/>
</linearGradient>
<linearGradient id="paint4_linear_354_18" x1="415.5" y1="152" x2="-16" y2="509.5" gradientUnits="userSpaceOnUse">
<stop stop-color="#F2B705"/>
<stop offset="1" stop-color="#F2B705"/>
</linearGradient>
<linearGradient id="paint5_linear_354_18" x1="362.598" y1="80.6403" x2="-68.6477" y2="362.101" gradientUnits="userSpaceOnUse">
<stop stop-color="#468731"/>
<stop offset="1" stop-color="#468731"/>
</linearGradient>
</defs>
</svg>
