<svg width="264" height="387" viewBox="0 0 264 387" fill="none" xmlns="http://www.w3.org/2000/svg">
<path d="M108 244L86.5 228.5L43 258V287L16 306.5" stroke="black" stroke-width="8"/>
<path d="M155 244L176.5 228.5L220 258V287L247 306.5" stroke="black" stroke-width="8"/>
<path d="M156 200.5L175 214L218.5 184H263.5" stroke="black" stroke-width="8"/>
<path d="M107.5 200.5L88.5 214L45 184H0" stroke="black" stroke-width="8"/>
<path d="M178 349.028L130.754 382L84 349.52V287.512L130.754 257L178 287.512V349.028Z" fill="black" stroke="black" stroke-width="8"/>
<path d="M155 244L131.377 261L108 244V183L131.377 166L155 183V244Z" fill="black" stroke="black" stroke-width="8"/>
<path d="M168 147.5L131.377 172L95.5 147.5V98.5L131.377 74L149.688 86.25L168 98.5V147.5Z" fill="black"/>
<path d="M191.5 0.5V58L149.688 86.25M149.688 86.25L131.377 74L95.5 98.5V147.5L131.377 172L168 147.5V98.5L149.688 86.25ZM191.5 0.5V58L149.688 86.25" stroke="black" stroke-width="8"/>
<path d="M70 1V58.5L111.812 86.75" stroke="black" stroke-width="8"/>
<path d="M155 183.5L197 154.5V125L245 91.5" stroke="black" stroke-width="8"/>
<path d="M19 91.5L61 120.5V150L109 183.5" stroke="black" stroke-width="8"/>
</svg>
