<svg width="74" height="74" viewBox="0 0 74 74" fill="none" xmlns="http://www.w3.org/2000/svg">
<path d="M64 54.5C64 59.7467 59.7467 64 54.5 64C49.2533 64 45 59.7467 45 54.5C45 49.2533 49.2533 45 54.5 45C59.7467 45 64 49.2533 64 54.5Z" fill="black"/>
<path d="M64 54.5C64 59.7467 59.7467 64 54.5 64C49.2533 64 45 59.7467 45 54.5C45 49.2533 49.2533 45 54.5 45C59.7467 45 64 49.2533 64 54.5Z" fill="black"/>
<path d="M29 19C29 24.5228 24.5228 29 19 29C13.4772 29 9 24.5228 9 19C9 13.4772 13.4772 9 19 9C24.5228 9 29 13.4772 29 19Z" fill="black"/>
<path d="M29 54.5C29 59.7467 24.5228 64 19 64C13.4772 64 9 59.7467 9 54.5C9 49.2533 13.4772 45 19 45C24.5228 45 29 49.2533 29 54.5Z" fill="black"/>
<path d="M64 19C64 24.5228 59.7467 29 54.5 29C49.2533 29 45 24.5228 45 19C45 13.4772 49.2533 9 54.5 9C59.7467 9 64 13.4772 64 19Z" fill="black"/>
<path d="M54.5 63V74" stroke="black"/>
<path d="M6 6L73.5074 73.5074" stroke="black"/>
<path d="M19 54L55 19" stroke="black" stroke-width="2"/>
<path d="M10 19H-2.98023e-07" stroke="black"/>
<path d="M19 10L19 -2.98023e-07" stroke="black"/>
<path d="M74 55H63" stroke="black"/>
</svg>
